<svg width="48" height="48" viewBox="0 0 48 48" fill="none" xmlns="http://www.w3.org/2000/svg">
<path fill-rule="evenodd" clip-rule="evenodd" d="M25.7982 11.8782C29.6358 8.04061 35.8577 8.04061 39.6952 11.8782C43.6206 15.8035 43.5175 22.1989 39.4676 25.9956L23.9967 40.4995L8.52586 25.9956C4.47599 22.1989 4.37286 15.8035 8.29822 11.8782C12.1358 8.04061 18.3577 8.04061 22.1952 11.8782L23.9967 13.6797L25.7982 11.8782ZM36.8668 14.7066C34.5914 12.4311 30.9021 12.4311 28.6266 14.7066L23.9967 19.3365L19.3668 14.7066C17.0914 12.4311 13.4021 12.4311 11.1266 14.7066C8.79913 17.0341 8.86027 20.8262 11.2616 23.0775L23.9967 35.0166L36.7318 23.0775C39.1332 20.8262 39.1943 17.0341 36.8668 14.7066Z" fill="#121117"/>
</svg>
