<svg width="32" height="32" viewBox="0 0 32 32" fill="none" xmlns="http://www.w3.org/2000/svg">
<path d="M25.4492 22.8496H28.6992V25.4492H25.4492V28.6992H22.8496V25.4492H19.5996V22.8496H22.8496V19.5996H25.4492V22.8496ZM27.4004 17H24.7998V6.59961H6.59961V24.7998H17V27.4004H4V4H27.4004V17ZM17 22.2002H9.2002L12.4502 18.7334L14.0752 20.4668L17 17.3467V22.2002ZM12.4502 11.7998C13.527 11.7999 14.4004 12.6731 14.4004 13.75C14.4004 14.8269 13.527 15.7001 12.4502 15.7002C11.3732 15.7002 10.5 14.8269 10.5 13.75C10.5 12.673 11.3732 11.7998 12.4502 11.7998Z" fill="#121117"/>
</svg>
