<svg width="96" height="96" viewBox="0 0 96 96" fill="none" xmlns="http://www.w3.org/2000/svg">
<path fill-rule="evenodd" clip-rule="evenodd" d="M69.4566 32.3146L45.5682 17.7121C37.8751 13.0105 28 18.5472 28 27.5643V68.6376C28 76.834 32.816 81.0666 39.0019 81.0666C44.8046 81.0666 49.5548 76.5737 49.9724 70.8798C55.6435 70.2849 60.3222 65.4947 60.0648 59.0056L70.4747 52.6424C74.1582 50.3917 76 46.591 76 42.7902C76 38.9895 74.7073 35.2288 69.4566 32.3146ZM39.0019 74.5232C36.5396 74.5232 34.5462 72.527 34.5462 70.0676C34.5462 67.6081 36.5396 65.609 39.0019 65.609C41.4643 65.609 43.4604 67.6052 43.4604 70.0676C43.4604 72.5299 41.4643 74.5232 39.0019 74.5232ZM53.5214 59.6605C53.5214 61.3421 52.4376 64.3965 48.428 64.3965C47.9733 63.6443 47.4328 62.9465 46.8179 62.3259C46.2002 61.7053 45.511 61.1562 44.7617 60.6929C43.0858 59.6605 41.1153 59.0657 39.0019 59.0657C37.5462 59.0657 36.1592 59.3488 34.8894 59.8607C34.7779 59.9065 34.652 59.958 34.5434 60.0066V50.1544C34.5434 47.5376 36.6625 45.4184 39.2793 45.4184H48.7855C51.4023 45.4184 53.5214 47.5376 53.5214 50.1544V59.6605ZM67.0629 47.06L60.0648 51.3383V50.1544C60.0648 43.9256 55.0143 38.8751 48.7855 38.8751H39.2793C37.5891 38.8751 35.9847 39.2469 34.5434 39.9161V27.5643C34.5434 23.6578 38.8217 21.2555 42.1563 23.2946L67.0629 38.5205C70.2545 40.4709 70.2545 45.1096 67.0629 47.06Z" fill="#121117"/>
</svg>
