<svg width="32" height="32" viewBox="0 0 32 32" fill="none" xmlns="http://www.w3.org/2000/svg">
<path d="M14.7491 14V22H17.2451V14H14.7491Z" fill="#121117"/>
<path d="M15.0051 12.56C15.2931 12.8373 15.6237 12.976 15.9971 12.976C16.3811 12.976 16.7117 12.8373 16.9891 12.56C17.2664 12.272 17.4051 11.9413 17.4051 11.568C17.4051 11.1733 17.2664 10.8427 16.9891 10.576C16.7117 10.2987 16.3811 10.16 15.9971 10.16C15.6237 10.16 15.2931 10.2987 15.0051 10.576C14.7277 10.8427 14.5891 11.1733 14.5891 11.568C14.5891 11.9413 14.7277 12.272 15.0051 12.56Z" fill="#121117"/>
<path fill-rule="evenodd" clip-rule="evenodd" d="M4 16C4 9.37258 9.37258 4 16 4C22.6274 4 28 9.37258 28 16C28 22.6274 22.6274 28 16 28C9.37258 28 4 22.6274 4 16ZM16 25.3333C10.8453 25.3333 6.66667 21.1547 6.66667 16C6.66667 10.8453 10.8453 6.66667 16 6.66667C21.1547 6.66667 25.3333 10.8453 25.3333 16C25.3333 21.1547 21.1547 25.3333 16 25.3333Z" fill="#121117"/>
</svg>
