<svg width="513" height="391" viewBox="0 0 513 391" fill="none" xmlns="http://www.w3.org/2000/svg">
<path d="M56.2735 30.2C56.2735 35.4 59.2735 38.4 65.6735 40.2C70.4735 41.6 74.8735 42.4 80.2735 44C97.4735 49.2 105.873 57.6 105.873 77C105.873 98.8 87.8735 110.2 66.8735 110.2C37.2735 110.2 28.0735 92.8 28.6735 74.2H54.2735C54.2735 81.8 56.8735 88.6 67.2735 88.6C74.2735 88.6 79.8735 85.2 79.8735 79C79.8735 72.8 76.6735 70 69.2735 68C63.4735 66.4 58.8735 65.4 53.0735 63.2C38.2735 57.8 30.8735 47.8 30.8735 31.6C30.8735 13.6 46.0735 0.400038 67.4735 0.400038C90.0735 0.400038 103.473 11.8 103.673 34.2H79.0735C78.8735 26 75.0735 21.2 66.8735 21.2C60.4735 21.2 56.2735 24.8 56.2735 30.2ZM112.453 73.8C112.453 53.8 127.053 38.6 149.253 38.6C158.853 38.6 165.453 41.2 168.253 43V37.6C168.253 28.4 164.253 21.8 154.253 21.8C144.253 21.8 141.253 28.2 141.253 34.2H116.253C116.853 14 129.053 0.600047 154.253 0.600047C185.053 0.600047 194.653 17.6 194.653 41.4V108.8H172.253V102C169.253 105.2 162.053 110.2 149.653 110.2C128.253 110.2 112.453 96 112.453 73.8ZM137.653 73.6C137.653 82.6 144.053 89 153.253 89C162.053 89 168.653 82.6 168.653 73.6C168.653 64.6 162.053 58.4 153.053 58.4C143.853 58.4 137.653 65 137.653 73.6ZM225.325 1.80004L249.525 75.2L273.725 1.80004H301.525L263.725 108.8H234.325L195.725 1.80004H225.325ZM402.739 64H326.339C327.739 78.2 337.739 86.8 352.939 86.8C366.539 86.8 374.339 79.6 379.939 70.8L399.739 82.8C393.339 96.2 378.939 110.6 352.939 110.6C320.539 110.6 298.139 89.6 298.139 55.6C298.139 23.6 319.739 4.29153e-05 350.739 4.29153e-05C382.939 4.29153e-05 403.139 21 403.139 53C403.139 55.6 403.139 59.4 402.739 64ZM350.539 22.6C336.939 22.6 328.339 31.6 326.939 43.8H375.339C374.139 31.8 365.139 22.6 350.539 22.6ZM30.4001 141.8V248.8H3.60005V141.8H30.4001ZM17.0001 135C8.20005 135 1.00005 128 1.00005 119.2C1.00005 110.2 8.20005 103 17.0001 103C26.0001 103 33 110.2 33 119.2C33 128 26.0001 135 17.0001 135ZM127.383 181.4V248.8H100.583V181.4C100.583 171.2 95.7829 164.4 86.3829 164.4C76.7829 164.4 71.7829 171.2 71.7829 181.8V248.8H44.9829V141.8H71.7829V149.8C74.5829 146.4 81.1829 140.6 94.7829 140.6C107.383 140.6 115.383 145.4 120.183 152.2C124.983 146.6 132.983 140.6 146.983 140.6C173.383 140.6 182.983 157.6 182.983 178.2V248.8H156.183V181.4C156.183 171 151.383 164.4 141.783 164.4C132.183 164.4 127.383 171.8 127.383 181.4ZM193.508 213.8C193.508 193.8 208.108 178.6 230.308 178.6C239.908 178.6 246.508 181.2 249.308 183V177.6C249.308 168.4 245.308 161.8 235.308 161.8C225.308 161.8 222.308 168.2 222.308 174.2H197.308C197.908 154 210.108 140.6 235.308 140.6C266.108 140.6 275.708 157.6 275.708 181.4V248.8H253.308V242C250.308 245.2 243.108 250.2 230.708 250.2C209.308 250.2 193.508 236 193.508 213.8ZM218.708 213.6C218.708 222.6 225.108 229 234.308 229C243.108 229 249.708 222.6 249.708 213.6C249.708 204.6 243.108 198.4 234.108 198.4C224.908 198.4 218.708 205 218.708 213.6ZM372.258 151.8V141.8H397.458V230.8C397.458 271 373.458 285.4 340.258 285.4C323.458 285.4 309.258 280.8 300.458 275.8L309.058 254.6C315.458 258.2 327.058 262.4 340.458 262.4C357.258 262.4 370.658 255.6 370.858 240V238.6C366.258 244 356.458 250.6 341.258 250.6C308.258 250.6 285.858 228.2 285.858 195.6C285.858 164.6 308.258 140 340.258 140C354.058 140 365.458 144.6 372.258 151.8ZM312.658 195.4C312.658 213.4 324.858 226.8 342.258 226.8C360.258 226.8 371.658 213.2 371.658 195.4C371.658 177.4 359.858 163.8 342.258 163.8C324.258 163.8 312.658 177.4 312.658 195.4ZM512.505 204H436.105C437.505 218.2 447.505 226.8 462.705 226.8C476.305 226.8 484.105 219.6 489.705 210.8L509.505 222.8C503.105 236.2 488.705 250.6 462.705 250.6C430.305 250.6 407.905 229.6 407.905 195.6C407.905 163.6 429.505 140 460.505 140C492.705 140 512.905 161 512.905 193C512.905 195.6 512.905 199.4 512.505 204ZM460.305 162.6C446.705 162.6 438.105 171.6 436.705 183.8H485.105C483.905 171.8 474.905 162.6 460.305 162.6ZM4.9144e-05 353.8C4.9144e-05 333.8 14.6 318.6 36.8001 318.6C46.4001 318.6 53.0001 321.2 55.8001 323V317.6C55.8001 308.4 51.8 301.8 41.8 301.8C31.8001 301.8 28.8001 308.2 28.8001 314.2H3.80005C4.40005 294 16.6 280.6 41.8 280.6C72.6 280.6 82.2001 297.6 82.2001 321.4V388.8H59.8001V382C56.8001 385.2 49.6001 390.2 37.2001 390.2C15.8 390.2 4.9144e-05 376 4.9144e-05 353.8ZM25.2 353.6C25.2 362.6 31.6 369 40.8001 369C49.6001 369 56.2001 362.6 56.2001 353.6C56.2001 344.6 49.6001 338.4 40.6001 338.4C31.4 338.4 25.2 345 25.2 353.6ZM119.75 310.2C119.75 315.4 122.75 318.4 129.15 320.2C133.95 321.6 138.35 322.4 143.75 324C160.95 329.2 169.35 337.6 169.35 357C169.35 378.8 151.35 390.2 130.35 390.2C100.75 390.2 91.55 372.8 92.15 354.2H117.75C117.75 361.8 120.35 368.6 130.75 368.6C137.75 368.6 143.35 365.2 143.35 359C143.35 352.8 140.15 350 132.75 348C126.95 346.4 122.35 345.4 116.55 343.2C101.75 337.8 94.35 327.8 94.35 311.6C94.35 293.6 109.55 280.4 130.95 280.4C153.55 280.4 166.95 291.8 167.15 314.2H142.55C142.35 306 138.55 301.2 130.35 301.2C123.95 301.2 119.75 304.8 119.75 310.2Z" fill="#121117"/>
</svg>
